<svg width="160" height="57" viewBox="0 0 160 57" fill="none" xmlns="http://www.w3.org/2000/svg">
<path d="M13.84 42.48C10.1067 42.48 7.25333 41.6133 5.28 39.88C3.30667 38.1467 2.32 35.6133 2.32 32.28V23.72C2.32 20.3867 3.29333 17.8533 5.24 16.12C7.18667 14.3867 10 13.52 13.68 13.52C16.2133 13.52 18.3067 13.9333 19.96 14.76C21.6133 15.5867 22.9467 16.84 23.96 18.52L20.6 20.88C19.7467 19.6 18.8 18.68 17.76 18.12C16.7467 17.5333 15.4 17.24 13.72 17.24C9.26667 17.24 7.04 19.4 7.04 23.72V32.28C7.04 36.6 9.29333 38.76 13.8 38.76C15.5867 38.76 17.0267 38.4533 18.12 37.84C19.2133 37.2267 20.16 36.2667 20.96 34.96L24.32 37.44C23.0667 39.2 21.6533 40.48 20.08 41.28C18.5067 42.08 16.4267 42.48 13.84 42.48ZM35.4 42.48C32.7333 42.48 30.6667 41.84 29.2 40.56C27.7333 39.28 27 37.4667 27 35.12V30.08C27 27.7333 27.7333 25.92 29.2 24.64C30.6667 23.36 32.7333 22.72 35.4 22.72C38.0933 22.72 40.1733 23.36 41.64 24.64C43.1067 25.92 43.84 27.7333 43.84 30.08V35.12C43.84 37.4667 43.1067 39.28 41.64 40.56C40.1733 41.84 38.0933 42.48 35.4 42.48ZM35.4 39.08C36.7067 39.08 37.7067 38.7467 38.4 38.08C39.12 37.3867 39.48 36.4 39.48 35.12V30.08C39.48 28.8 39.12 27.8267 38.4 27.16C37.7067 26.4667 36.7067 26.12 35.4 26.12C34.12 26.12 33.12 26.4667 32.4 27.16C31.7067 27.8267 31.36 28.8 31.36 30.08V35.12C31.36 36.4 31.7067 37.3867 32.4 38.08C33.12 38.7467 34.12 39.08 35.4 39.08ZM51.9041 42.48C50.7307 41.8667 49.9041 41.16 49.4241 40.36C48.9707 39.56 48.7441 38.4667 48.7441 37.08V17.8C48.7441 17.1333 48.6241 16.6 48.3841 16.2C48.1441 15.8 47.7041 15.36 47.0641 14.88L49.9841 12.32C51.1574 12.9333 51.9707 13.64 52.4241 14.44C52.8774 15.2133 53.1041 16.3067 53.1041 17.72V37C53.1041 37.64 53.2241 38.16 53.4641 38.56C53.7307 38.96 54.1841 39.4133 54.8241 39.92L51.9041 42.48ZM62.2556 42.48C61.0823 41.8667 60.2556 41.16 59.7756 40.36C59.3223 39.56 59.0956 38.4667 59.0956 37.08V17.8C59.0956 17.1333 58.9756 16.6 58.7356 16.2C58.4956 15.8 58.0556 15.36 57.4156 14.88L60.3356 12.32C61.509 12.9333 62.3223 13.64 62.7756 14.44C63.229 15.2133 63.4556 16.3067 63.4556 17.72V37C63.4556 37.64 63.5756 38.16 63.8156 38.56C64.0823 38.96 64.5356 39.4133 65.1756 39.92L62.2556 42.48ZM77.1225 39.12C78.1625 39.12 79.0292 38.9867 79.7225 38.72C80.4425 38.4267 81.1625 37.9333 81.8825 37.24L84.4825 39.64C83.6825 40.5733 82.6825 41.28 81.4825 41.76C80.2825 42.24 78.8025 42.48 77.0425 42.48C74.1625 42.48 72.0292 41.8933 70.6425 40.72C69.2558 39.52 68.5625 37.6933 68.5625 35.24V29.4C68.5625 27.3467 69.2825 25.7333 70.7225 24.56C72.1892 23.36 74.1892 22.76 76.7225 22.76C79.3092 22.76 81.3225 23.4 82.7625 24.68C84.2025 25.9333 84.9225 27.7467 84.9225 30.12C84.9225 31.2133 84.8158 32.0667 84.6025 32.68C84.3892 33.2933 84.0025 33.7467 83.4425 34.04C82.8825 34.3067 82.0558 34.44 80.9625 34.44H72.8825V35.24C72.8825 37.8267 74.2958 39.12 77.1225 39.12ZM76.6825 26.08C75.5092 26.08 74.5758 26.4133 73.8825 27.08C73.2158 27.7467 72.8825 28.6267 72.8825 29.72V31.44H78.6025C79.3492 31.44 79.8692 31.32 80.1625 31.08C80.4558 30.8133 80.6025 30.36 80.6025 29.72C80.6025 28.5467 80.2558 27.6533 79.5625 27.04C78.8958 26.4 77.9358 26.08 76.6825 26.08ZM108.328 25.28C107.688 25.7867 107.248 26.24 107.008 26.64C106.768 27.04 106.648 27.56 106.648 28.2V42.84C106.648 45.32 105.968 47.1333 104.608 48.28C103.275 49.4267 101.141 50 98.2081 50H93.0881V46.64H98.2081C99.5948 46.64 100.621 46.3333 101.288 45.72C101.955 45.1067 102.288 44.1467 102.288 42.84V39.32C101.675 40.2 100.901 40.8667 99.9681 41.32C99.0348 41.7733 97.8348 42 96.3681 42C93.8615 42 91.8615 41.1733 90.3681 39.52C88.8748 37.84 88.1281 35.5867 88.1281 32.76V31.96C88.1281 30.2267 88.4348 28.6667 89.0481 27.28C89.6881 25.8667 90.6215 24.76 91.8481 23.96C93.1015 23.1333 94.5948 22.72 96.3281 22.72C99.0748 22.72 101.168 23.7867 102.608 25.92C102.768 25.2267 103.061 24.64 103.488 24.16C103.941 23.6533 104.595 23.1733 105.448 22.72L108.328 25.28ZM97.4881 38.6C99.9415 38.6 101.541 37.4133 102.288 35.04V29.72C101.541 27.32 99.9415 26.12 97.4881 26.12C95.9148 26.12 94.6881 26.68 93.8081 27.8C92.9281 28.8933 92.4881 30.28 92.4881 31.96V32.76C92.4881 34.44 92.9281 35.84 93.8081 36.96C94.6881 38.0533 95.9148 38.6 97.4881 38.6ZM119.896 39.12C120.936 39.12 121.803 38.9867 122.496 38.72C123.216 38.4267 123.936 37.9333 124.656 37.24L127.256 39.64C126.456 40.5733 125.456 41.28 124.256 41.76C123.056 42.24 121.576 42.48 119.816 42.48C116.936 42.48 114.803 41.8933 113.416 40.72C112.029 39.52 111.336 37.6933 111.336 35.24V29.4C111.336 27.3467 112.056 25.7333 113.496 24.56C114.963 23.36 116.963 22.76 119.496 22.76C122.083 22.76 124.096 23.4 125.536 24.68C126.976 25.9333 127.696 27.7467 127.696 30.12C127.696 31.2133 127.589 32.0667 127.376 32.68C127.163 33.2933 126.776 33.7467 126.216 34.04C125.656 34.3067 124.829 34.44 123.736 34.44H115.656V35.24C115.656 37.8267 117.069 39.12 119.896 39.12ZM119.456 26.08C118.283 26.08 117.349 26.4133 116.656 27.08C115.989 27.7467 115.656 28.6267 115.656 29.72V31.44H121.376C122.123 31.44 122.643 31.32 122.936 31.08C123.229 30.8133 123.376 30.36 123.376 29.72C123.376 28.5467 123.029 27.6533 122.336 27.04C121.669 26.4 120.709 26.08 119.456 26.08Z" fill="white"/>
<g filter="url(#filter0_d_125_93)">
<path d="M139.797 6.49219C139.986 6.49219 140.142 6.64844 140.266 6.96094C140.376 7 140.49 7.53385 140.607 8.5625L140.686 8.60156L140.656 8.67969L140.666 8.79688C140.744 8.79688 140.816 9.01823 140.881 9.46094H140.842C140.9 9.59766 140.949 9.87109 140.988 10.2812L141.018 10.6719L141.086 10.9062C141.06 10.9583 141.05 10.9974 141.057 11.0234C141.089 11.1276 141.109 11.2188 141.115 11.2969H141.076C141.252 11.6354 141.451 11.8047 141.672 11.8047C141.678 11.9089 141.721 11.9609 141.799 11.9609L141.848 12.5469C141.874 12.7943 142.033 12.9766 142.326 13.0938L142.355 13.3672C142.401 13.4258 142.45 13.569 142.502 13.7969L142.707 14.3438H142.785L142.922 13.6406H142.961L142.912 13.5625C142.958 13.276 142.997 13.1328 143.029 13.1328V13.0938C143.003 13.0938 142.99 13.0807 142.99 13.0547C143.055 13.0547 143.068 12.612 143.029 11.7266C143.101 11.5703 143.16 11.4922 143.205 11.4922H143.4L143.41 11.6094C143.43 12.4492 143.443 12.9049 143.449 12.9766L143.479 13.3281L143.41 13.4453L143.439 13.7578L143.527 13.875V13.9141C143.534 13.9727 143.527 14.0247 143.508 14.0703C143.54 14.1484 143.57 14.1875 143.596 14.1875C143.596 14.2135 143.583 14.2266 143.557 14.2266L143.615 14.4219L143.645 14.7734C143.645 14.7995 143.632 14.8125 143.605 14.8125L143.654 14.8906L143.625 14.9688H143.664C143.664 14.9948 143.651 15.0078 143.625 15.0078L143.684 15.2031L143.723 15.6719C143.781 16.3424 143.856 16.7591 143.947 16.9219H143.908L143.957 17C143.996 17.4622 143.938 17.9831 143.781 18.5625C143.749 18.8099 143.739 18.9922 143.752 19.1094L143.801 19.1875C143.801 19.2135 143.788 19.2266 143.762 19.2266L143.928 19.7734L143.957 20.0859C143.911 20.4961 143.892 20.7174 143.898 20.75C143.918 20.7826 143.964 21.0299 144.035 21.4922H144.074C144.536 20.8672 144.855 20.4766 145.031 20.3203C145.148 20.1771 145.207 20.099 145.207 20.0859C145.181 20.0859 145.165 20.0729 145.158 20.0469C145.217 20.0469 145.409 19.8516 145.734 19.4609C145.969 19.2917 146.242 19.0052 146.555 18.6016L146.506 18.4062C146.538 18.4062 146.896 18.0286 147.58 17.2734C147.717 17.1953 148.309 16.5312 149.357 15.2812L149.67 14.8516C149.787 14.6693 149.882 14.5781 149.953 14.5781C149.953 14.4935 150.048 14.3763 150.236 14.2266C150.223 14.0768 151.216 12.931 153.215 10.7891C153.208 10.6719 153.267 10.5938 153.391 10.5547C153.391 10.4961 153.508 10.3268 153.742 10.0469C153.781 10.0469 153.853 9.96875 153.957 9.8125C153.983 9.8125 154.064 9.70833 154.201 9.5C154.605 9.10286 154.885 8.89453 155.041 8.875H155.158C155.243 8.875 155.337 8.91406 155.441 8.99219L155.412 9.07031L155.432 9.26562C155.373 9.26562 155.34 9.34375 155.334 9.5C155.035 9.9362 154.719 10.5091 154.387 11.2188C154.322 11.375 154.25 11.4531 154.172 11.4531L154.221 11.5312V11.5703C154.169 11.5703 154.12 11.6094 154.074 11.6875L154.123 11.7656L154.094 11.8438C154.12 11.8438 154.133 11.8568 154.133 11.8828H154.094L154.016 11.8438L154.025 11.9219C154.032 11.974 154.058 12 154.104 12C154.156 11.974 154.195 11.9609 154.221 11.9609C154.221 11.987 154.234 12 154.26 12V11.9609C154.442 11.9935 154.686 11.8828 154.992 11.6289C154.706 12.0456 154.862 11.9902 155.461 11.4629C154.868 12.1335 154.576 12.4818 154.582 12.5078L154.953 12.0293C154.914 12.1986 154.715 12.4102 154.357 12.6641L154.367 12.7031L154.406 12.7812C154.361 12.8073 154.325 12.8203 154.299 12.8203L154.338 12.8984L154.348 12.9375L154.26 12.8984L154.016 13.25C154.048 13.3021 154.068 13.3411 154.074 13.3672L153.986 13.3281C153.934 13.3346 153.911 13.3607 153.918 13.4062C153.944 13.4062 153.957 13.4193 153.957 13.4453C153.879 13.4453 153.833 13.6667 153.82 14.1094C153.872 14.1094 153.902 14.1224 153.908 14.1484L153.879 14.3047C153.879 14.3307 153.892 14.3438 153.918 14.3438C153.944 14.6432 153.853 14.9167 153.645 15.1641H153.605L153.693 15.2812C153.563 15.2812 153.498 15.3073 153.498 15.3594C153.264 15.6003 153.094 15.8867 152.99 16.2188H153.029C153.361 15.9388 153.579 15.7435 153.684 15.6328C153.742 15.6328 153.788 15.5807 153.82 15.4766C153.82 15.4245 154.247 15.1087 155.1 14.5293C155.412 14.2884 155.52 14.2884 155.422 14.5293L154.611 15.5156V15.5547L154.66 15.6328L154.016 16.375C153.957 16.4336 153.794 16.6549 153.527 17.0391H153.449L153.498 17.1172V17.1562H153.381L153.41 17.3906C153.299 17.3906 153.179 17.5339 153.049 17.8203C152.971 17.8203 152.782 18.0286 152.482 18.4453C152.45 18.4453 152.391 18.5234 152.307 18.6797C152.092 18.9987 151.916 19.2331 151.779 19.3828C150.803 20.4245 150.318 20.9844 150.324 21.0625C150.298 21.2904 150.106 21.6159 149.748 22.0391C149.709 22.0391 149.624 22.1042 149.494 22.2344H149.416C149.41 22.1693 149.364 22.0781 149.279 21.9609L149.338 21.8438L149.328 21.7266L149.24 21.6094C149.253 21.6094 149.292 21.5833 149.357 21.5312L149.309 21.4531C149.354 21.349 149.374 21.2578 149.367 21.1797H149.289C149.257 21.1797 149.081 21.4141 148.762 21.8828C148.618 21.9479 148.43 22.3125 148.195 22.9766L147.775 23.6016C147.704 23.6016 147.502 23.8229 147.17 24.2656L146.789 24.8516C146.249 25.3203 145.972 25.5547 145.959 25.5547C145.965 25.6133 145.917 25.6784 145.812 25.75C145.839 25.75 145.855 25.763 145.861 25.7891C145.744 25.8346 145.64 26.0039 145.549 26.2969C145.503 26.5573 145.441 26.7266 145.363 26.8047H145.441V26.8438C145.441 26.8568 145.419 26.8958 145.373 26.9609L145.412 27.3906C145.471 27.4557 145.523 27.5859 145.568 27.7812H145.529C145.653 28.2956 145.786 28.9466 145.93 29.7344H145.969C145.975 29.7604 145.965 29.7734 145.939 29.7734L146.047 30.125H146.008C146.132 30.5547 146.229 30.8021 146.301 30.8672L146.271 30.9453C146.324 30.9518 146.353 30.9779 146.359 31.0234L146.369 31.2188H146.291L146.34 31.2969H146.262L146.35 31.4141C146.291 31.4141 146.265 31.5573 146.271 31.8438C146.311 31.987 146.333 32.0911 146.34 32.1562H146.301C146.353 32.3841 146.405 32.5273 146.457 32.5859C146.431 32.5859 146.418 32.599 146.418 32.625H146.496L146.428 32.7422C146.499 32.7422 146.617 33.0286 146.779 33.6016C146.805 33.6016 146.818 33.6146 146.818 33.6406L146.789 33.7188H146.867L146.906 34.1875C146.926 34.4349 146.893 34.6562 146.809 34.8516L146.857 34.9297C146.844 35.1055 146.844 35.2487 146.857 35.3594V35.3984C146.857 35.4245 146.87 35.4375 146.896 35.4375C146.877 35.4896 146.867 35.5286 146.867 35.5547C146.9 35.6068 146.916 35.6458 146.916 35.6719H146.877L146.926 35.75L146.896 35.8281C146.975 35.8281 147.089 36.0885 147.238 36.6094C147.238 36.6354 147.225 36.6484 147.199 36.6484L147.277 37.1172L147.297 37.3125L147.277 37.5078H147.316L147.287 37.5859L147.326 38.1328L147.385 38.3281H147.346L147.395 38.4062L147.414 38.6797C147.421 38.7383 147.414 38.7904 147.395 38.8359C147.466 39.0443 147.531 39.1875 147.59 39.2656L147.6 39.4609C147.606 39.5 147.548 39.5521 147.424 39.6172C147.313 39.5911 147.255 39.526 147.248 39.4219H147.287C147.229 39.2396 147.17 39.1484 147.111 39.1484L147.092 39.0312L147.131 38.9531C147.085 38.9531 146.968 38.6667 146.779 38.0938C146.753 38.0938 146.74 38.0807 146.74 38.0547L146.73 38.0156L146.77 37.9375C146.711 37.9375 146.656 37.7552 146.604 37.3906H146.643L146.467 36.7656H146.506C146.337 36.3034 146.213 35.9128 146.135 35.5938C146.07 35.4896 146.024 35.4375 145.998 35.4375L146.008 35.4766C146.027 35.7109 146.073 35.9323 146.145 36.1406H146.105C146.268 36.5573 146.353 36.7786 146.359 36.8047L146.32 36.8828C146.353 36.9349 146.369 36.974 146.369 37H146.33L146.379 37.0781L146.418 37.5469L146.398 37.7422H146.438L146.369 37.8984C146.421 37.8984 146.451 37.9115 146.457 37.9375C146.464 38.0156 146.428 38.0547 146.35 38.0547V38.0938C146.402 38.0938 146.428 38.1068 146.428 38.1328C146.447 38.2956 146.558 38.6341 146.76 39.1484H146.799C146.727 39.2591 146.695 39.3633 146.701 39.4609L146.75 39.5391C146.75 39.8255 146.737 39.9688 146.711 39.9688C146.711 39.9948 146.724 40.0078 146.75 40.0078L146.73 40.2031L146.76 40.5547C146.773 40.724 146.815 40.9062 146.887 41.1016H146.848C146.939 41.2188 147.076 41.8828 147.258 43.0938V43.1328C147.264 43.1914 147.258 43.2435 147.238 43.2891L147.277 43.3672C147.245 43.4583 147.232 43.7448 147.238 44.2266C147.271 44.2786 147.287 44.3177 147.287 44.3438H147.248L147.297 44.4219L147.346 45.0469C147.352 45.0729 147.342 45.0859 147.316 45.0859C147.336 45.138 147.375 45.2812 147.434 45.5156C147.408 45.5677 147.398 45.6068 147.404 45.6328H147.443L147.404 45.7109C147.495 46.1016 147.544 46.3359 147.551 46.4141H147.512C147.616 46.8958 147.691 47.1562 147.736 47.1953V47.2344L147.707 47.3125C147.759 47.3125 147.785 47.3255 147.785 47.3516C147.87 47.7227 147.919 47.9831 147.932 48.1328L147.941 48.2891C147.909 48.3932 147.824 48.4453 147.688 48.4453C147.681 48.4062 147.622 48.3542 147.512 48.2891L147.551 48.2109L147.541 48.1719C147.489 48.1719 147.463 48.1589 147.463 48.1328L147.492 48.0547C147.362 47.7422 147.196 47.1823 146.994 46.375C146.923 46.375 146.841 46.1797 146.75 45.7891L146.613 45.5156L146.604 45.4375L146.633 45.3594C146.555 45.3594 146.46 45.151 146.35 44.7344C146.337 44.6237 146.239 44.2721 146.057 43.6797L146.008 43.1328C145.839 42.9505 145.689 42.7161 145.559 42.4297C145.585 42.4297 145.598 42.4167 145.598 42.3906C145.52 42.3906 145.389 41.9609 145.207 41.1016C145.181 41.1016 145.168 41.0885 145.168 41.0625L145.158 40.9844H145.236L145.227 40.8672C145.083 40.5677 144.973 40.3594 144.895 40.2422H144.855C144.862 40.2812 144.839 40.3203 144.787 40.3594C144.794 40.3854 144.81 40.3984 144.836 40.3984L144.807 40.5938L144.846 40.9453C144.846 40.9583 144.823 40.9974 144.777 41.0625L144.797 41.375L144.895 41.4922L144.953 42.1953C144.96 42.2539 144.95 42.306 144.924 42.3516C144.956 42.3971 144.976 42.4492 144.982 42.5078C144.943 42.5078 144.895 42.5599 144.836 42.6641H144.719C144.686 42.6641 144.611 42.5339 144.494 42.2734L144.455 41.9219L144.494 41.8438C144.436 41.8438 144.367 41.6745 144.289 41.3359C144.315 41.3359 144.328 41.3229 144.328 41.2969H144.289C144.283 41.2708 144.292 41.2578 144.318 41.2578L143.977 40.3984C143.957 40.2096 143.853 39.9102 143.664 39.5L143.508 38.6797C143.508 38.6536 143.521 38.6406 143.547 38.6406L143.488 38.4453L143.459 38.0938C143.426 38.0938 143.384 38.1849 143.332 38.3672L143.361 38.7969H143.283L143.293 38.875L143.342 38.9531L143.264 38.9922L143.332 39.2656L143.342 39.4609H143.42C143.42 39.474 143.397 39.513 143.352 39.5781L143.361 39.6953H143.439C143.446 39.7083 143.423 39.7474 143.371 39.8125L143.41 40.2422H143.488L143.42 40.3594C143.505 40.3854 143.55 40.4635 143.557 40.5938C143.563 40.6198 143.553 40.6328 143.527 40.6328C143.56 40.6849 143.576 40.724 143.576 40.75C143.583 40.9844 143.553 41.1016 143.488 41.1016V41.0625L143.41 41.1016C143.293 41.1016 143.166 40.8411 143.029 40.3203H142.99L143.02 40.2422C142.948 40.1315 142.847 39.8581 142.717 39.4219C142.691 39.4219 142.678 39.4089 142.678 39.3828L142.668 39.3047L142.697 39.2266C142.645 39.2266 142.619 39.2005 142.619 39.1484L142.6 39.0312C142.43 38.0417 142.323 37.5469 142.277 37.5469H142.238L142.229 37.4688L142.268 37.3906C142.189 37.3906 142.079 37.0391 141.936 36.3359C141.883 36.3359 141.857 36.3099 141.857 36.2578L141.828 35.9453C141.874 35.8802 141.896 35.8411 141.896 35.8281L141.857 35.3984C141.74 35.2617 141.636 34.9622 141.545 34.5H141.584C141.538 34.3438 141.493 34.2656 141.447 34.2656L141.477 34.1875L141.467 34.0312L141.379 33.9141L141.359 33.6797C141.353 33.6211 141.359 33.569 141.379 33.5234C141.353 33.4779 141.337 33.4258 141.33 33.3672L141.311 33.1328H141.389L141.359 32.8203C141.353 32.7943 141.337 32.7812 141.311 32.7812L141.35 32.7031C141.343 32.6771 141.327 32.6641 141.301 32.6641L141.34 32.5859L141.33 32.5469L141.047 32.4297C140.904 32.6185 140.663 32.8268 140.324 33.0547L140.012 33.5234C139.947 33.5234 139.878 33.6146 139.807 33.7969C139.715 33.7969 139.631 33.901 139.553 34.1094C139.455 34.1094 139.266 34.3307 138.986 34.7734C138.648 34.9753 138.212 35.3398 137.678 35.8672C137.574 35.9844 137.199 36.3099 136.555 36.8438C136.49 36.9479 136.392 37.0391 136.262 37.1172C136.268 37.1823 136.034 37.4688 135.559 37.9766C135.546 38.0482 135.461 38.1393 135.305 38.25C135.201 38.2109 135.119 38.1458 135.061 38.0547C135.048 37.9115 135.1 37.7682 135.217 37.625C135.191 37.625 135.178 37.612 135.178 37.5859C135.243 37.5859 135.324 37.4818 135.422 37.2734C135.467 37.2734 135.559 37.1302 135.695 36.8438C135.897 36.6419 136.024 36.4466 136.076 36.2578H136.037C135.992 36.3555 135.832 36.4727 135.559 36.6094V36.6484L135.607 36.7266C135.458 36.7266 135.178 36.974 134.768 37.4688C134.429 37.7161 134.26 37.8594 134.26 37.8984C134.123 38.1458 133.801 38.4583 133.293 38.8359C133.241 38.9401 133.166 39.0052 133.068 39.0312C133.075 39.1029 133.042 39.1549 132.971 39.1875C132.977 39.2461 132.902 39.2852 132.746 39.3047C132.557 39.3047 132.209 39.6562 131.701 40.3594C131.669 40.3594 131.587 40.4505 131.457 40.6328C131.418 40.6328 131.359 40.6979 131.281 40.8281L131.008 40.8672L130.881 40.7109L130.861 40.5938C130.855 40.5156 130.933 40.3333 131.096 40.0469L131.35 39.4219H131.389L131.379 39.2656H131.34C131.04 39.3633 130.852 39.4544 130.773 39.5391C130.533 39.6497 130.324 39.806 130.148 40.0078C130.051 40.0078 129.921 40.1641 129.758 40.4766C129.712 40.737 129.66 40.8672 129.602 40.8672L129.65 40.9453C129.598 40.9453 129.553 41.0365 129.514 41.2188C129.37 41.2188 129.123 41.375 128.771 41.6875C128.563 41.9414 128.465 42.1367 128.479 42.2734C128.505 42.6055 128.404 42.8268 128.176 42.9375C128.156 43.1198 128.101 43.2109 128.01 43.2109C127.691 43.5039 127.349 43.7513 126.984 43.9531C126.613 44.2461 126.382 44.4544 126.291 44.5781C126.226 44.5781 126.011 44.7995 125.646 45.2422C125.432 45.431 125.227 45.6263 125.031 45.8281C124.992 45.8542 124.943 45.8672 124.885 45.8672H124.729L124.719 45.8281C124.706 45.6589 124.751 45.5547 124.855 45.5156C124.842 45.418 124.888 45.3529 124.992 45.3203C124.986 45.2487 125.168 44.9753 125.539 44.5C125.539 44.4479 125.565 44.4219 125.617 44.4219L125.607 44.3438H125.568L124.865 44.8125C124.501 45.1055 124.322 45.2747 124.328 45.3203C124.191 45.3203 123.892 45.6068 123.43 46.1797C122.948 46.4141 122.691 46.6354 122.658 46.8438C122.593 46.8438 122.495 46.8958 122.365 47C122.02 47.2083 121.763 47.3906 121.594 47.5469C120.949 48.3021 120.578 48.6797 120.48 48.6797H120.324C120.324 48.6536 120.308 48.6146 120.275 48.5625C120.269 48.3477 120.607 47.9049 121.291 47.2344C121.421 46.9023 121.734 46.4596 122.229 45.9062C122.274 45.9062 122.437 45.6849 122.717 45.2422C122.827 45.2422 123.033 45.0339 123.332 44.6172C123.306 44.3828 123.719 43.7578 124.572 42.7422C124.566 42.6836 124.657 42.5273 124.846 42.2734C125.327 41.5703 125.607 41.2057 125.686 41.1797C125.673 41.069 125.728 40.9779 125.852 40.9062C125.845 40.8411 126.102 40.5026 126.623 39.8906C126.747 39.7669 126.851 39.6237 126.936 39.4609C127.027 39.4609 127.277 39.1875 127.688 38.6406C127.772 38.6406 127.844 38.5625 127.902 38.4062C127.987 38.4062 128.059 38.3281 128.117 38.1719C128.26 38.1719 128.618 37.8203 129.191 37.1172C129.263 37.1042 129.478 36.8568 129.836 36.375C129.979 36.2253 130.08 36.043 130.139 35.8281L131.242 34.5781C131.288 34.5456 131.307 34.3242 131.301 33.9141C131.353 33.9141 131.372 33.7188 131.359 33.3281C131.411 33.3281 131.438 33.3021 131.438 33.25C131.411 33.25 131.395 33.237 131.389 33.2109C132.313 32.2995 132.808 31.8438 132.873 31.8438C132.958 31.6615 133.042 31.5703 133.127 31.5703L133.078 31.4922C133.156 31.4922 133.218 31.4401 133.264 31.3359C133.355 31.2839 133.446 31.1667 133.537 30.9844C134.038 30.5352 134.406 30.1055 134.641 29.6953C134.777 29.5846 135.171 29.181 135.822 28.4844C136.063 28.25 136.343 28.0156 136.662 27.7812C136.975 27.4622 137.209 27.1758 137.365 26.9219L137.746 26.4141C137.85 26.2708 138.094 26.0625 138.479 25.7891C138.492 25.6328 138.55 25.5547 138.654 25.5547C138.635 25.3203 138.664 25.2031 138.742 25.2031C138.82 25.2031 138.853 25.138 138.84 25.0078H138.801L138.791 24.9688H138.869V24.8906C138.811 24.8255 138.781 24.7865 138.781 24.7734L138.771 24.6953H138.85L138.801 24.6172C138.794 24.526 138.964 24.3568 139.309 24.1094C139.315 24.0052 139.335 23.9531 139.367 23.9531C139.309 23.5625 139.24 23.3672 139.162 23.3672C139.162 23.3411 139.175 23.3281 139.201 23.3281C139.13 23.1198 139.081 22.8724 139.055 22.5859L139.006 22C138.999 21.9414 139.006 21.8893 139.025 21.8438L138.928 21.6094H138.967L138.928 21.5312L138.957 21.4531L138.908 21.375C138.986 20.75 139.016 20.3464 138.996 20.1641C139.022 20.1641 139.032 20.125 139.025 20.0469C138.967 19.6562 138.898 19.4609 138.82 19.4609L138.732 18.8359C138.719 18.7513 138.713 18.5299 138.713 18.1719C138.817 18.1719 138.846 17.9245 138.801 17.4297C138.827 17.4297 138.84 17.4167 138.84 17.3906H138.801L138.83 17.3125L138.82 17.2344C138.82 17.2083 138.807 17.1953 138.781 17.1953C138.801 17.1432 138.811 17.1042 138.811 17.0781C138.726 16.7005 138.638 16.4661 138.547 16.375V16.2969C138.592 16.2318 138.615 16.1927 138.615 16.1797C138.563 16.1797 138.534 16.1536 138.527 16.1016H138.605V16.0625H138.527C138.566 15.9648 138.583 15.8607 138.576 15.75L138.41 13.875L138.322 13.7578L138.205 12.3906C138.27 12.1302 138.335 11.974 138.4 11.9219L138.625 11.8828C138.703 11.8828 138.745 11.9219 138.752 12H138.791C138.817 11.7135 138.856 11.5703 138.908 11.5703L138.869 11.4922C139.025 11.2383 139.097 11.0299 139.084 10.8672C139.077 10.7891 139.1 10.75 139.152 10.75L139.104 10.6719V10.5938C139.201 10.5938 139.25 10.125 139.25 9.1875C139.276 9.1875 139.289 9.17448 139.289 9.14844L139.27 8.91406L139.221 8.83594C139.292 8.83594 139.328 8.34115 139.328 7.35156C139.374 7.35156 139.403 7.23438 139.416 7C139.501 6.66146 139.628 6.49219 139.797 6.49219ZM130.021 34.5391H130.061C130.1 34.5391 130.158 34.5911 130.236 34.6953V34.7734C129.781 35.1185 129.439 35.5091 129.211 35.9453C129.172 35.9453 129.074 36.0365 128.918 36.2188C128.944 36.2188 128.96 36.2318 128.967 36.2578C128.863 36.2578 128.811 36.2839 128.811 36.3359C128.817 36.3685 128.758 36.4336 128.635 36.5312C128.641 36.6159 128.573 36.707 128.43 36.8047C128.43 36.8438 128.156 37.1693 127.609 37.7812C127.616 37.8073 127.414 38.0286 127.004 38.4453C126.835 38.7318 126.73 38.875 126.691 38.875H126.574C126.568 38.7904 126.636 38.6732 126.779 38.5234V38.4844L126.662 38.5625H126.623L127.248 37.625C127.242 37.5599 127.548 37.1953 128.166 36.5312C128.186 36.375 128.231 36.2969 128.303 36.2969L128.254 36.2188C128.651 35.7565 128.915 35.4961 129.045 35.4375C129.038 35.3529 129.243 35.1445 129.66 34.8125C129.654 34.7409 129.738 34.6888 129.914 34.6562C129.914 34.6172 129.95 34.5781 130.021 34.5391Z" fill="#FF0000"/>
</g>
<defs>
<filter id="filter0_d_125_93" x="116.266" y="6.49219" width="43.3027" height="50.1875" filterUnits="userSpaceOnUse" color-interpolation-filters="sRGB">
<feFlood flood-opacity="0" result="BackgroundImageFix"/>
<feColorMatrix in="SourceAlpha" type="matrix" values="0 0 0 0 0 0 0 0 0 0 0 0 0 0 0 0 0 0 127 0" result="hardAlpha"/>
<feOffset dy="4"/>
<feGaussianBlur stdDeviation="2"/>
<feComposite in2="hardAlpha" operator="out"/>
<feColorMatrix type="matrix" values="0 0 0 0 0 0 0 0 0 0 0 0 0 0 0 0 0 0 0.25 0"/>
<feBlend mode="normal" in2="BackgroundImageFix" result="effect1_dropShadow_125_93"/>
<feBlend mode="normal" in="SourceGraphic" in2="effect1_dropShadow_125_93" result="shape"/>
</filter>
</defs>
</svg>
