<svg width="187" height="45" viewBox="0 0 187 45" fill="none" xmlns="http://www.w3.org/2000/svg">
<g filter="url(#filter0_d_27_415)">
<path d="M19.52 0.159998H21.76C22.8533 0.239999 23.8667 0.466666 24.8 0.839999C25.84 1.18667 26.84 1.72 27.8 2.44C28.04 2.62667 28.16 2.69333 28.16 2.64C28.1867 2.64 28.68 2.24 29.64 1.44C30.7067 0.586665 31.2267 0.173332 31.2 0.199998C31.4133 0.0666647 31.8 0.0666647 32.36 0.199998C32.4933 0.279998 32.5733 0.413332 32.6 0.599998C32.6267 0.866666 32.64 2.6 32.64 5.8C32.64 9.34667 32.6 11.1733 32.52 11.28L32.36 11.36C32.2533 11.4133 31.8267 11.44 31.08 11.44C30.3333 11.44 29.9067 11.4133 29.8 11.36C29.6133 11.2267 29.5067 11.0267 29.48 10.76C29.2667 8.78667 28.56 7.08 27.36 5.64C26.8267 5.05333 26.32 4.58667 25.84 4.24C24.9867 3.62666 24.0933 3.25333 23.16 3.12C21.9867 2.88 20.5467 2.94666 18.84 3.32C17.1333 3.66667 15.76 4.28 14.72 5.16C14.1067 5.64 13.6533 6.12 13.36 6.6C12.24 8.22667 11.68 10.7867 11.68 14.28C11.68 17.9333 12.3067 20.5733 13.56 22.2C13.6933 22.3867 13.8533 22.5733 14.04 22.76C14.3867 23.1067 14.6133 23.32 14.72 23.4C15.76 24.28 17.1333 24.8933 18.84 25.24C20.3333 25.56 21.6533 25.6533 22.8 25.52C25.2267 25.28 27.1067 24.2 28.44 22.28C29.24 21.16 29.68 19.92 29.76 18.56C29.76 18.1067 29.8533 17.8267 30.04 17.72C30.1467 17.6667 30.5333 17.64 31.2 17.64C31.8667 17.64 32.2533 17.6667 32.36 17.72C32.5467 17.8533 32.64 18.16 32.64 18.64C32.56 19.92 32.2667 21.08 31.76 22.12C30.5067 24.7333 28.36 26.5733 25.32 27.64C24.2 28.04 23.0133 28.2933 21.76 28.4C20.9067 28.48 19.8267 28.4667 18.52 28.36C15.16 27.9867 12.36 27.0267 10.12 25.48C7.98667 23.9067 6.46667 21.9467 5.56 19.6C5.16 18.5867 4.85333 17.3867 4.64 16C4.53333 15.04 4.53333 13.9467 4.64 12.72C4.64 12.64 4.64 12.5733 4.64 12.52C4.90667 10.3867 5.57333 8.46667 6.64 6.76C8.26667 4.12 10.7333 2.24 14.04 1.12C15.7467 0.586665 17.5733 0.266665 19.52 0.159998ZM45.8422 9.92L48.2822 9.96C52.2289 10.4133 54.8555 12.2267 56.1622 15.4C56.2422 15.5867 56.3222 15.7867 56.4022 16C56.7222 16.96 56.8955 17.9467 56.9222 18.96C56.9755 21.0933 56.4422 22.9333 55.3222 24.48C54.7355 25.36 53.9355 26.0933 52.9222 26.68C52.2555 27.1333 51.3355 27.52 50.1622 27.84C49.2022 28.08 48.0555 28.2 46.7222 28.2C45.3889 28.2 44.2422 28.08 43.2822 27.84C42.1089 27.52 41.1889 27.1333 40.5222 26.68C39.5089 26.0933 38.7089 25.36 38.1222 24.48C37.4289 23.4933 36.9489 22.3467 36.6822 21.04C36.2022 18.4533 36.6555 16.0933 38.0422 13.96C38.2022 13.6667 38.3889 13.4 38.6022 13.16C40.1489 11.32 42.3622 10.2533 45.2422 9.96C45.4022 9.93333 45.6022 9.92 45.8422 9.92ZM47.9222 12.44C47.2822 12.3333 46.6289 12.3067 45.9622 12.36C44.9222 12.52 44.1622 12.84 43.6822 13.32C43.1489 13.8 42.8289 14.6 42.7222 15.72C42.6689 16.28 42.6422 17.1067 42.6422 18.2C42.6155 21.0267 42.7489 22.8533 43.0422 23.68C43.4155 24.64 44.2822 25.2667 45.6422 25.56C46.2555 25.6667 46.9755 25.6667 47.8022 25.56C48.6289 25.4 49.2689 25.0933 49.7222 24.64C50.2555 24.1333 50.5755 23.2667 50.6822 22.04C50.7089 21.7467 50.7355 21.4133 50.7622 21.04L50.7222 16.04C50.7222 15.96 50.7222 15.9067 50.7222 15.88C50.5889 14.6533 50.2689 13.8 49.7622 13.32C49.3355 12.8933 48.7222 12.6 47.9222 12.44ZM63.57 0.399998C66.2367 0.293332 67.5433 0.24 67.49 0.24H67.73V12.68V25.12H69.13H70.49V26.56V28H70.13L67.41 27.92C65.8367 27.8933 64.2767 27.8933 62.73 27.92L60.01 28H59.65V26.56V25.12H61.05H62.41V14.72C62.41 7.78667 62.3833 4.25333 62.33 4.12C62.25 3.85333 62.0767 3.68 61.81 3.6C61.4367 3.49333 60.89 3.44 60.17 3.44H59.65V2V0.559998H59.77C59.6367 0.559998 60.9033 0.506665 63.57 0.399998ZM76.3434 0.399998C79.0101 0.293332 80.3168 0.24 80.2634 0.24H80.5034V12.68V25.12H81.9034H83.2634V26.56V28H82.9034L80.1834 27.92C78.6101 27.8933 77.0501 27.8933 75.5034 27.92L72.7834 28H72.4234V26.56V25.12H73.8234H75.1834V14.72C75.1834 7.78667 75.1568 4.25333 75.1034 4.12C75.0234 3.85333 74.8501 3.68 74.5834 3.6C74.2101 3.49333 73.6634 3.44 72.9434 3.44H72.4234V2V0.559998H72.5434C72.4101 0.559998 73.6768 0.506665 76.3434 0.399998ZM93.9969 9.92L96.6769 9.96C98.5702 10.2267 100.09 10.8933 101.237 11.96C102.57 13.2933 103.33 15.1067 103.517 17.4C103.597 18.3867 103.477 18.9867 103.157 19.2C103.05 19.2533 101.024 19.28 97.0769 19.28H91.1969V20.08C91.2769 21.9467 91.6502 23.2533 92.3169 24C92.3702 24.0533 92.4369 24.12 92.5169 24.2C93.2902 24.9733 94.4635 25.44 96.0369 25.6C96.6502 25.6533 97.1569 25.64 97.5569 25.56C98.9969 25.3467 100.01 24.6267 100.597 23.4C100.624 23.32 100.65 23.2533 100.677 23.2C100.81 22.8533 101.024 22.6667 101.317 22.64C101.45 22.6133 101.717 22.6 102.117 22.6C102.704 22.6 103.05 22.6267 103.157 22.68C103.477 22.84 103.597 23.12 103.517 23.52C103.357 24.08 103.09 24.6 102.717 25.08C101.517 26.7333 99.6369 27.76 97.0769 28.16C96.3302 28.2667 95.3302 28.28 94.0769 28.2C93.9969 28.1733 93.9169 28.16 93.8369 28.16C89.5169 27.6 86.7569 25.5733 85.5569 22.08C85.3969 21.5467 85.2635 20.9867 85.1569 20.4C85.0502 19.6533 85.0502 18.7733 85.1569 17.76C85.1569 17.68 85.1569 17.6133 85.1569 17.56C85.4502 15.8267 86.0769 14.3733 87.0369 13.2C87.3835 12.72 87.8902 12.24 88.5569 11.76C90.0235 10.6933 91.8369 10.08 93.9969 9.92ZM95.7969 12.4C95.3969 12.32 94.8902 12.3067 94.2769 12.36C93.0769 12.5733 92.2369 13.1733 91.7569 14.16C91.4902 14.72 91.3169 15.5333 91.2369 16.6V16.96H94.9569H98.7169L98.6769 16.76C98.4102 14.28 97.4502 12.8267 95.7969 12.4ZM123.731 9.84L124.491 9.8H124.531C124.931 9.82667 125.197 9.86667 125.331 9.92C125.917 10.1067 126.384 10.48 126.731 11.04C127.104 11.5733 127.264 12.1467 127.211 12.76C127.184 13.1867 127.051 13.5733 126.811 13.92C126.411 14.5867 125.771 14.8933 124.891 14.84C124.144 14.7867 123.571 14.4933 123.171 13.96L123.091 13.84L123.171 14.08C123.331 14.5333 123.411 14.7733 123.411 14.8C123.491 15.1467 123.531 15.5733 123.531 16.08C123.531 16.5867 123.504 16.9867 123.451 17.28C123.211 18.16 122.797 18.96 122.211 19.68C121.571 20.4533 120.637 21.0667 119.411 21.52C118.797 21.76 118.077 21.9333 117.251 22.04C114.824 22.3867 112.677 22.2133 110.811 21.52L110.371 21.36C110.344 21.36 110.291 21.5867 110.211 22.04C110.157 22.6 110.331 23.08 110.731 23.48C110.971 23.7467 111.237 23.9333 111.531 24.04L111.811 24.12L115.371 24.16C117.637 24.16 119.011 24.1867 119.491 24.24C121.517 24.4267 123.131 24.8933 124.331 25.64C125.771 26.52 126.611 27.96 126.851 29.96C127.011 31.3467 126.611 32.5067 125.651 33.44C124.104 34.9333 121.571 35.7867 118.051 36C115.437 36.1333 113.211 35.9867 111.371 35.56C108.251 34.7867 106.451 33.4533 105.971 31.56C105.891 31.3467 105.851 31.12 105.851 30.88C105.771 29.4933 106.477 28.4 107.971 27.6C108.077 27.5467 108.184 27.4933 108.291 27.44L108.531 27.32L108.411 27.12C107.637 26.1333 107.251 24.9867 107.251 23.68C107.251 22.5333 107.584 21.4667 108.251 20.48L108.491 20.16L108.171 19.84C107.824 19.4933 107.504 19.0533 107.211 18.52C107.024 18.0667 106.877 17.6533 106.771 17.28C106.717 17.0133 106.691 16.6133 106.691 16.08C106.691 15.5733 106.717 15.1867 106.771 14.92C107.011 14.04 107.424 13.24 108.011 12.52C108.651 11.7467 109.584 11.1333 110.811 10.68C112.037 10.2267 113.477 10 115.131 10C117.104 10 118.757 10.32 120.091 10.96L120.371 11.12L120.651 10.92C121.557 10.3333 122.584 9.97333 123.731 9.84ZM115.891 12.48C115.064 12.3733 114.357 12.4133 113.771 12.6C113.104 12.7333 112.637 13.0533 112.371 13.56C112.184 14.0133 112.091 14.8533 112.091 16.08C112.091 17.3333 112.184 18.1867 112.371 18.64C112.531 19.04 112.931 19.3467 113.571 19.56C114.131 19.7733 114.931 19.8267 115.971 19.72C116.664 19.6133 117.184 19.3867 117.531 19.04C117.824 18.7733 118.011 18.2533 118.091 17.48V14.72C118.011 13.9467 117.824 13.4267 117.531 13.16C117.157 12.7867 116.611 12.56 115.891 12.48ZM122.771 12.68C122.771 12.6 122.784 12.52 122.811 12.44L122.531 12.52L122.291 12.6L122.611 13.04C122.771 13.3333 122.864 13.4933 122.891 13.52C122.917 13.52 122.904 13.4267 122.851 13.24C122.797 12.9733 122.771 12.7867 122.771 12.68ZM118.531 29.04H111.731C111.171 29.12 110.757 29.4 110.491 29.88C110.011 30.7867 110.277 31.6267 111.291 32.4C111.477 32.56 111.691 32.6933 111.931 32.8C112.651 33.12 113.531 33.36 114.571 33.52C115.504 33.6267 116.611 33.64 117.891 33.56C117.997 33.5333 118.091 33.52 118.171 33.52C120.011 33.28 121.277 32.7467 121.971 31.92C122.397 31.3867 122.544 30.8933 122.411 30.44C122.277 30.12 122.064 29.88 121.771 29.72C121.157 29.3467 120.077 29.12 118.531 29.04ZM138.098 9.92L140.778 9.96C142.672 10.2267 144.192 10.8933 145.338 11.96C146.672 13.2933 147.432 15.1067 147.618 17.4C147.698 18.3867 147.578 18.9867 147.258 19.2C147.152 19.2533 145.125 19.28 141.178 19.28H135.298V20.08C135.378 21.9467 135.752 23.2533 136.418 24C136.472 24.0533 136.538 24.12 136.618 24.2C137.392 24.9733 138.565 25.44 140.138 25.6C140.752 25.6533 141.258 25.64 141.658 25.56C143.098 25.3467 144.112 24.6267 144.698 23.4C144.725 23.32 144.752 23.2533 144.778 23.2C144.912 22.8533 145.125 22.6667 145.418 22.64C145.552 22.6133 145.818 22.6 146.218 22.6C146.805 22.6 147.152 22.6267 147.258 22.68C147.578 22.84 147.698 23.12 147.618 23.52C147.458 24.08 147.192 24.6 146.818 25.08C145.618 26.7333 143.738 27.76 141.178 28.16C140.432 28.2667 139.432 28.28 138.178 28.2C138.098 28.1733 138.018 28.16 137.938 28.16C133.618 27.6 130.858 25.5733 129.658 22.08C129.498 21.5467 129.365 20.9867 129.258 20.4C129.152 19.6533 129.152 18.7733 129.258 17.76C129.258 17.68 129.258 17.6133 129.258 17.56C129.552 15.8267 130.178 14.3733 131.138 13.2C131.485 12.72 131.992 12.24 132.658 11.76C134.125 10.6933 135.938 10.08 138.098 9.92ZM139.898 12.4C139.498 12.32 138.992 12.3067 138.378 12.36C137.178 12.5733 136.338 13.1733 135.858 14.16C135.592 14.72 135.418 15.5333 135.338 16.6V16.96H139.058H142.818L142.778 16.76C142.512 14.28 141.552 12.8267 139.898 12.4ZM150.912 2V0.559998H151.352C151.326 0.559998 152.486 0.586665 154.832 0.639999C156.832 0.666666 158.979 0.666666 161.272 0.639999L165.232 0.559998H165.752V2V3.44H164.432C163.526 3.44 163.072 3.45333 163.072 3.48L167.032 9.24C167.059 9.24 167.766 8.28 169.152 6.36L171.232 3.44H169.512H167.832V2V0.559998H168.272L171.712 0.639999C173.686 0.666666 175.512 0.666666 177.192 0.639999L180.072 0.559998H180.472V2V3.44H177.752H175.072L171.992 7.76L168.912 12.04L173.392 18.56L177.872 25.12H180.152H182.432V26.56V28H181.992C182.019 28 180.859 27.9733 178.512 27.92C176.512 27.8933 174.366 27.8933 172.072 27.92L168.112 28H167.592V26.56V25.12H168.952C169.832 25.12 170.272 25.1067 170.272 25.08L165.032 17.48L162.272 21.28L159.552 25.08L161.272 25.12H162.952V26.56V28H162.512L159.072 27.92C157.099 27.8933 155.272 27.8933 153.592 27.92L150.712 28H150.312V26.56V25.12H153.032H155.752L159.472 19.92C161.926 16.4533 163.166 14.7067 163.192 14.68L159.352 9.08L155.512 3.44H153.192H150.912V2Z" fill="black"/>
</g>
<defs>
<filter id="filter0_d_27_415" x="0.47998" y="0" width="185.952" height="44.2" filterUnits="userSpaceOnUse" color-interpolation-filters="sRGB">
<feFlood flood-opacity="0" result="BackgroundImageFix"/>
<feColorMatrix in="SourceAlpha" type="matrix" values="0 0 0 0 0 0 0 0 0 0 0 0 0 0 0 0 0 0 127 0" result="hardAlpha"/>
<feOffset dy="4"/>
<feGaussianBlur stdDeviation="2"/>
<feComposite in2="hardAlpha" operator="out"/>
<feColorMatrix type="matrix" values="0 0 0 0 0 0 0 0 0 0 0 0 0 0 0 0 0 0 0.25 0"/>
<feBlend mode="normal" in2="BackgroundImageFix" result="effect1_dropShadow_27_415"/>
<feBlend mode="normal" in="SourceGraphic" in2="effect1_dropShadow_27_415" result="shape"/>
</filter>
</defs>
</svg>
